<svg data-v-fde0c5aa="" xmlns="http://www.w3.org/2000/svg" viewBox="0 0 300 300" class="font"><!----><defs data-v-fde0c5aa=""><linearGradient data-v-fde0c5aa="" gradientTransform="rotate(25)" id="5bc37917-17d4-4db8-aab8-382580afa99c" x1="0%" y1="0%" x2="100%" y2="0%"><stop data-v-fde0c5aa="" offset="0%" stop-color="#085B20" stop-opacity="1"></stop><stop data-v-fde0c5aa="" offset="100%" stop-color="#41E296" stop-opacity="1"></stop></linearGradient></defs><rect data-v-fde0c5aa="" fill="url(#5bc37917-17d4-4db8-aab8-382580afa99c)" x="0" y="0" width="300px" height="300px" class="logo-background-square"></rect><defs data-v-fde0c5aa=""><!----></defs><g data-v-fde0c5aa="" id="4c0a22cc-e30a-4604-becb-f06cf0035169" fill="#ffffff" transform="matrix(2.660539530812044,0,0,2.660539530812044,37.60551432712084,123.64735665774741)"><path d="M0.90 13.78L2.95 13.78L2.95 9.91L5.45 9.91L5.45 13.78L7.50 13.78L7.50 4.54L5.45 4.54L5.45 8.11L2.95 8.11L2.95 4.54L0.90 4.54ZM11.54 13.94C12.43 13.94 13.30 13.51 14 12.96L14.06 12.96L14.21 13.78L15.89 13.78L15.89 9.66C15.89 7.50 14.70 6.45 12.75 6.45C11.56 6.45 10.46 6.87 9.79 7.43L10.51 8.78C11.02 8.37 11.68 8.11 12.35 8.11C13.29 8.11 13.76 8.51 13.83 9.18C10.54 9.39 9.25 10.21 9.25 11.80C9.25 13.01 10.14 13.94 11.54 13.94ZM12.19 12.35C11.61 12.35 11.23 12.12 11.23 11.65C11.23 11.00 11.79 10.54 13.83 10.42L13.83 11.65C13.34 12.05 12.81 12.35 12.19 12.35ZM18.42 13.78L20.48 13.78L20.48 10.02C21.07 8.74 21.97 8.26 22.82 8.26C23.34 8.26 23.62 8.34 24.05 8.47L24.47 6.75C24.07 6.57 23.74 6.45 23.13 6.45C22.02 6.45 21 7.03 20.31 8.20L20.27 8.20L20.10 6.64L18.42 6.64ZM28.25 13.78L30.62 13.78L33.17 6.64L31.19 6.64L30.10 10.05C29.88 10.77 29.69 11.51 29.48 12.25L29.43 12.25C29.22 11.51 29.02 10.77 28.80 10.05L27.71 6.64L25.63 6.64ZM38.22 13.94C39.14 13.94 40.18 13.62 40.96 13.12L40.29 11.87C39.68 12.21 39.13 12.38 38.50 12.38C37.48 12.38 36.62 11.90 36.48 10.81L41.16 10.81C41.19 10.63 41.24 10.25 41.24 9.88C41.24 7.94 40.12 6.45 37.98 6.45C36.13 6.45 34.37 7.87 34.37 10.21C34.37 12.57 36.06 13.94 38.22 13.94ZM36.46 9.44C36.64 8.48 37.28 8.04 38.02 8.04C38.96 8.04 39.38 8.60 39.38 9.44ZM46.14 13.94C48.37 13.94 49.56 12.95 49.56 11.66C49.56 10.43 48.37 9.90 47.00 9.52C46.02 9.25 45.22 9.03 45.22 8.58C45.22 8.20 45.56 7.99 46.42 7.99C47.15 7.99 47.82 8.27 48.45 8.67L49.38 7.43C48.65 6.96 47.61 6.45 46.38 6.45C44.39 6.45 43.18 7.36 43.18 8.68C43.18 9.81 44.44 10.42 45.65 10.77C46.77 11.09 47.52 11.34 47.52 11.79C47.52 12.18 47.12 12.42 46.19 12.42C45.26 12.42 44.46 12.08 43.67 11.56L42.74 12.85C43.62 13.45 44.90 13.94 46.14 13.94ZM55.83 13.94C56.73 13.94 57.48 13.75 58.10 13.55L57.74 12.07C57.33 12.22 56.88 12.33 56.35 12.33C55.34 12.33 54.89 11.90 54.89 10.81L54.89 8.25L57.83 8.25L57.83 6.64L54.89 6.64L54.89 3.70L52.93 4.54L52.93 6.64L51.09 6.64L51.09 8.25L52.84 8.25L52.84 10.82C52.84 12.68 53.62 13.94 55.83 13.94ZM62.97 5.80C63.78 5.80 64.37 5.26 64.37 4.42C64.37 3.58 63.78 3.00 62.97 3.00C62.16 3.00 61.57 3.58 61.57 4.42C61.57 5.26 62.16 5.80 62.97 5.80ZM59.65 13.78L66.47 13.78L66.47 12.11L64.09 12.11L64.09 6.64L59.65 6.64L59.65 8.25L62.03 8.25L62.03 12.11L59.65 12.11ZM70.18 13.78L72.24 13.78L72.24 8.25L74.63 8.25L74.63 6.64L72.24 6.64L72.24 6.40C72.24 5.52 72.66 5.11 73.54 5.11C74.07 5.11 74.56 5.21 75.00 5.39L75.39 3.88C74.80 3.67 74.09 3.49 73.29 3.49C71.12 3.49 70.18 4.77 70.18 6.41L70.18 6.64L68.35 6.72L68.35 8.25L70.18 8.25ZM77.60 16.81C79.35 16.81 80.18 15.89 80.84 14.11L83.59 6.64L81.65 6.64L80.63 9.76C80.40 10.46 80.18 11.20 80.00 11.90L79.94 11.90C79.72 11.16 79.49 10.43 79.24 9.76L78.08 6.64L76.03 6.64L79.04 13.61L78.82 14.18C78.68 14.53 78.25 15.19 77.45 15.19C77.27 15.19 77.08 15.16 76.90 15.11L76.54 16.67C76.83 16.76 77.20 16.81 77.60 16.81Z"></path></g><!----><!----></svg>